# 3ds Max Wavefront OBJ Exporter v0.97b - (c)2007 guruware
# 创建的文件:13.04.2021 17:30:14

#
# object mesh101
#

v  -2.0132 0.0000 2.0191
v  -2.0132 -0.0008 6.0421
v  2.0092 -0.0004 2.0191
v  2.0112 -0.0010 6.0421
v  -2.0132 0.0000 -2.0059
v  2.0092 -0.0004 -2.0059
v  -2.0133 -0.0016 7.0543
v  2.0133 -0.0016 7.0543
v  2.0133 0.6819 10.0643
v  2.0133 0.6821 7.7077
v  -2.0133 0.6819 10.0643
v  -2.0133 0.6821 7.7077
v  -2.0132 0.0000 -5.0284
v  2.0092 -0.0004 -5.0284
# 14 vertices

vn 0.0001 1.0000 0.0002
vn 0.0000 1.0000 0.0002
vn 0.0001 1.0000 -0.0000
vn 0.0001 1.0000 0.0000
vn 0.0000 1.0000 0.0008
vn 0.0000 1.0000 0.0007
vn 0.0000 1.0000 0.0006
vn 0.0000 1.0000 0.0001
vn 0.0000 0.6909 -0.7230
# 9 vertex normals

vt 0.4961 0.5020 0.0000
vt 0.4961 0.9961 0.0000
vt 0.0039 0.5020 0.0000
vt 0.0039 0.9961 0.0000
vt 0.4961 0.6250 0.0000
vt 0.0020 0.6250 0.0000
vt 0.0020 0.5020 0.0000
vt 0.0039 0.7461 0.0000
vt 0.4981 0.9941 0.0000
vt 0.4981 0.7461 0.0000
vt 0.4961 0.6255 0.0000
vt 0.0039 0.6255 0.0000
# 12 texture coords

o mesh101
g mesh101
s 1
f 1/1/1 2/2/1 3/3/1 
f 4/4/2 3/3/1 2/2/1 
f 5/1/3 1/2/4 6/3/4 
f 3/4/3 6/3/4 1/2/4 
f 7/5/5 8/6/6 2/1/5 
f 4/7/7 2/1/5 8/6/6 
f 9/4/8 10/8/8 11/9/8 
f 12/10/8 11/9/8 10/8/8 
f 10/8/9 8/6/9 12/10/9 
f 7/5/9 12/10/9 8/6/9 
f 13/11/3 5/2/3 14/12/3 
f 5/2/3 6/4/3 14/12/3 
# 0 polygons - 12 triangles

