# 3ds Max Wavefront OBJ Exporter v0.97b - (c)2007 guruware
# 创建的文件:13.04.2021 16:08:44

#
# object mesh76
#

v  -4.0150 -0.0001 -1.9578
v  -4.0150 -0.0001 1.9578
v  0.0075 -0.0002 -1.9583
v  0.0075 -0.0002 1.9573
v  4.0225 -0.0002 -1.9583
v  4.0225 -0.0002 1.9573
v  8.0387 -0.0001 -1.9583
v  8.0387 -0.0002 1.9573
v  -5.0041 0.0800 -1.9573
v  -5.0041 0.0800 1.9583
v  -8.0387 0.0800 1.9583
v  -8.0387 0.0800 -1.9573
# 12 vertices

vn 0.0000 1.0000 -0.0000
vn 0.0000 1.0000 0.0000
vn -0.0000 1.0000 -0.0000
vn -0.0000 1.0000 0.0000
vn 0.0808 0.9967 -0.0000
# 5 vertex normals

vt 0.4967 0.5019 0.0000
vt 0.4967 0.9961 0.0000
vt 0.0033 0.5019 0.0000
vt 0.0033 0.9961 0.0000
vt 0.1237 0.5019 0.0000
vt 0.1237 0.9961 0.0000
# 6 texture coords

o mesh76
g mesh76
s 1
f 1/1/1 2/2/2 3/3/2 
f 4/4/1 3/3/2 2/2/2 
f 3/1/1 4/2/1 5/3/1 
f 6/4/1 5/3/1 4/2/1 
f 5/1/3 6/2/4 7/3/4 
f 8/4/2 7/3/4 6/2/4 
f 9/5/5 10/6/5 1/3/5 
f 2/4/5 1/3/5 10/6/5 
f 11/2/1 10/6/1 12/1/1 
f 9/5/1 12/1/1 10/6/1 
# 0 polygons - 10 triangles

