# 3ds Max Wavefront OBJ Exporter v0.97b - (c)2007 guruware
# 创建的文件:13.04.2021 15:08:30

#
# object mesh10
#

v  0.0185 0.1148 -0.5536
v  -0.0008 0.0546 -0.3986
v  0.0289 0.1246 -0.5536
v  0.0289 0.0700 -0.3986
v  -0.0137 0.0225 -0.1968
v  0.0289 0.0410 -0.1968
v  -0.0162 0.0077 -0.0000
v  0.0289 0.0276 -0.0000
v  -0.0137 0.0225 0.1968
v  0.0289 0.0410 0.1968
v  -0.0008 0.0546 0.3986
v  0.0289 0.0700 0.3986
v  0.0185 0.1148 0.5536
v  0.0289 0.1246 0.5536
v  0.0289 -0.0118 -0.3986
v  -0.0075 -0.0358 -0.3986
v  -0.0228 -0.1246 -0.1968
v  0.0289 -0.0923 -0.1968
v  -0.0289 -0.1603 -0.0000
v  0.0289 -0.1246 -0.0000
v  -0.0228 -0.1246 0.1968
v  0.0289 -0.0923 0.1968
v  -0.0075 -0.0358 0.3986
v  0.0289 -0.0118 0.3986
v  0.0289 0.0676 -0.3986
v  -0.0008 0.0522 -0.3986
v  0.0289 0.1222 -0.5536
v  0.0185 0.1124 -0.5536
v  -0.0137 0.0201 -0.1968
v  0.0289 0.0386 -0.1968
v  -0.0162 0.0054 -0.0000
v  0.0289 0.0252 -0.0000
v  -0.0137 0.0201 0.1968
v  0.0289 0.0386 0.1968
v  -0.0008 0.0522 0.3986
v  0.0289 0.0676 0.3986
v  0.0185 0.1124 0.5536
v  0.0289 0.1222 0.5536
v  -0.0075 -0.0382 -0.3986
v  0.0289 -0.0142 -0.3986
v  -0.0228 -0.1270 -0.1968
v  0.0289 -0.0947 -0.1968
v  -0.0289 -0.1627 -0.0000
v  0.0289 -0.1270 -0.0000
v  -0.0228 -0.1270 0.1968
v  0.0289 -0.0947 0.1968
v  -0.0075 -0.0382 0.3986
v  0.0289 -0.0142 0.3986
# 48 vertices

vn -0.6704 0.7160 0.1947
vn -0.4587 0.8679 0.1904
vn -0.6406 0.7384 0.2105
vn -0.4462 0.8692 0.2131
vn -0.3995 0.9119 0.0945
vn -0.3964 0.9128 0.0980
vn -0.4025 0.9154 -0.0005
vn -0.4025 0.9154 -0.0006
vn -0.3968 0.9135 -0.0895
vn -0.3996 0.9121 -0.0921
vn -0.4478 0.8734 -0.1914
vn -0.4573 0.8650 -0.2066
vn -0.6411 0.7247 -0.2525
vn -0.6620 0.7070 -0.2488
vn -0.4807 0.7324 0.4822
vn -0.5650 0.6360 0.5256
vn -0.5025 0.7576 0.4165
vn -0.5874 0.6273 0.5113
vn -0.5193 0.8269 0.2160
vn -0.5150 0.8237 0.2372
vn -0.5261 0.8504 0.0007
vn -0.5260 0.8505 0.0008
vn -0.5176 0.8280 -0.2157
vn -0.5169 0.8230 -0.2355
vn -0.4981 0.7596 -0.4183
vn -0.4858 0.7320 -0.4778
vn -0.5642 0.6203 -0.5448
vn -0.5751 0.6141 -0.5405
vn 0.4462 -0.8692 -0.2131
vn 0.4587 -0.8679 -0.1904
vn 0.6406 -0.7384 -0.2105
vn 0.6704 -0.7160 -0.1947
vn 0.3994 -0.9119 -0.0945
vn 0.3964 -0.9128 -0.0980
vn 0.4025 -0.9154 0.0005
vn 0.4026 -0.9154 0.0006
vn 0.3967 -0.9136 0.0895
vn 0.3995 -0.9121 0.0920
vn 0.4478 -0.8734 0.1914
vn 0.4573 -0.8650 0.2066
vn 0.6411 -0.7247 0.2525
vn 0.6620 -0.7070 0.2488
vn 0.5874 -0.6273 -0.5113
vn 0.5650 -0.6360 -0.5256
vn 0.5025 -0.7576 -0.4165
vn 0.4806 -0.7324 -0.4822
vn 0.5193 -0.8269 -0.2160
vn 0.5150 -0.8237 -0.2372
vn 0.5261 -0.8504 -0.0007
vn 0.5260 -0.8505 -0.0008
vn 0.5176 -0.8280 0.2157
vn 0.5169 -0.8230 0.2355
vn 0.4980 -0.7596 0.4183
vn 0.4857 -0.7320 0.4778
vn 0.5642 -0.6203 0.5448
vn 0.5751 -0.6141 0.5405
# 56 vertex normals

vt 0.9750 0.2459 0.0000
vt 0.9750 0.1671 0.0000
vt 0.9971 0.2459 0.0000
vt 0.9971 0.1671 0.0000
vt 0.9750 0.0824 0.0000
vt 0.9971 0.0824 0.0000
vt 0.9750 0.0017 0.0000
vt 0.9971 0.0017 0.0000
vt 0.9971 0.2479 0.0000
vt 0.9750 0.2479 0.0000
# 10 texture coords

o mesh10
g mesh10
s 1
f 1/1/1 2/2/2 3/3/3 
f 4/4/4 3/3/3 2/2/2 
f 2/2/2 5/5/5 4/4/4 
f 6/6/6 4/4/4 5/5/5 
f 5/5/5 7/7/7 6/6/6 
f 8/8/8 6/6/6 7/7/7 
f 7/7/7 9/5/9 8/8/8 
f 10/6/10 8/8/8 9/5/9 
f 9/5/9 11/2/11 10/6/10 
f 12/4/12 10/6/10 11/2/11 
f 11/2/11 13/1/13 12/4/12 
f 14/3/14 12/4/12 13/1/13 
f 15/4/15 3/9/16 16/2/17 
f 1/10/18 16/2/17 3/9/16 
f 16/2/17 17/5/19 15/4/15 
f 18/6/20 15/4/15 17/5/19 
f 17/5/19 19/7/21 18/6/20 
f 20/8/22 18/6/20 19/7/21 
f 19/7/21 21/5/23 20/8/22 
f 22/6/24 20/8/22 21/5/23 
f 21/5/23 23/2/25 22/6/24 
f 24/4/26 22/6/24 23/2/25 
f 23/2/25 13/10/27 24/4/26 
f 14/9/28 24/4/26 13/10/27 
f 25/4/29 26/2/30 27/3/31 
f 28/1/32 27/3/31 26/2/30 
f 26/2/30 25/4/29 29/5/33 
f 30/6/34 29/5/33 25/4/29 
f 29/5/33 30/6/34 31/7/35 
f 32/8/36 31/7/35 30/6/34 
f 31/7/35 32/8/36 33/5/37 
f 34/6/38 33/5/37 32/8/36 
f 33/5/37 34/6/38 35/2/39 
f 36/4/40 35/2/39 34/6/38 
f 35/2/39 36/4/40 37/1/41 
f 38/3/42 37/1/41 36/4/40 
f 28/10/43 27/9/44 39/2/45 
f 40/4/46 39/2/45 27/9/44 
f 39/2/45 40/4/46 41/5/47 
f 42/6/48 41/5/47 40/4/46 
f 41/5/47 42/6/48 43/7/49 
f 44/8/50 43/7/49 42/6/48 
f 43/7/49 44/8/50 45/5/51 
f 46/6/52 45/5/51 44/8/50 
f 45/5/51 46/6/52 47/2/53 
f 48/4/54 47/2/53 46/6/52 
f 47/2/53 48/4/54 37/10/55 
f 38/9/56 37/10/55 48/4/54 
# 0 polygons - 48 triangles

